<?xml version="1.0" encoding="UTF-8"?>
<svg version="1.1" xmlns="http://www.w3.org/2000/svg" width="585" height="397">
<path d="M0 0 C77.92471042 0 77.92471042 0 95.62109375 16.3984375 C101.97680459 23.34901783 107.03437554 30.9843708 111.9375 39 C113.25923351 41.13745083 114.58218947 43.27414613 115.90625 45.41015625 C116.58171875 46.50086426 117.2571875 47.59157227 117.953125 48.71533203 C121.23673526 53.98461786 124.58413897 59.21241898 127.9375 64.4375 C128.59919189 65.46915283 129.26088379 66.50080566 129.94262695 67.5637207 C131.28640004 69.65796117 132.63055746 71.75195507 133.97509766 73.84570312 C137.36306326 79.12331533 140.74418356 84.40530619 144.125 89.6875 C144.78862549 90.72422852 145.45225098 91.76095703 146.13598633 92.82910156 C152.20150389 102.30819444 158.24478978 111.80134502 164.28222656 121.29833984 C167.18673564 125.86646057 170.09349229 130.43315077 173 135 C174.1666772 136.83332663 175.33334387 138.66665996 176.5 140.5 C177.0775 141.4075 177.655 142.315 178.25 143.25 C183.5 151.5 183.5 151.5 185.24951172 154.24926758 C186.41776388 156.08506912 187.58605824 157.9208438 188.75439453 159.7565918 C191.64714755 164.30194376 194.5391977 168.84773967 197.4296875 173.39453125 C204.4036612 184.36268089 211.39644751 195.31858572 218.40771484 206.26293945 C219.66006564 208.21802858 220.90933144 210.17509779 222.15527344 212.13427734 C223.40195153 214.07095118 224.67158832 215.99300802 225.96191406 217.90087891 C229.60007006 223.35248398 231.8351582 227.52987324 232.875 234 C240.3527159 273.37865123 260.6875354 310.72535984 288.49414062 339.44287109 C289.55641883 340.54131636 290.61178237 341.64646921 291.66210938 342.75634766 C301.01998885 352.63093579 310.94765515 361.08102433 322 369 C322.58620117 369.43086914 323.17240234 369.86173828 323.77636719 370.30566406 C338.01021373 380.72731519 354.27129957 388.1436888 370 396 C370 396.33 370 396.66 370 397 C357.220743 397.09308012 344.44156796 397.16395692 331.66203976 397.20724869 C325.72663756 397.22803678 319.79146897 397.25619269 313.85620117 397.30175781 C308.11789752 397.34553026 302.37981718 397.36920295 296.64135933 397.37950897 C294.46271822 397.38684434 292.28408799 397.40116696 290.10554314 397.42292023 C267.52081977 397.63926521 249.96465217 393.87594066 232.8515625 378.13671875 C226.27139173 371.32324152 221.46417156 362.72495163 216.4375 354.75 C215.2070932 352.80725243 213.97662265 350.86454523 212.74609375 348.921875 C212.12460449 347.93896484 211.50311523 346.95605469 210.86279297 345.94335938 C207.91763314 341.28977524 204.95840303 336.6451716 202 332 C200.83325954 330.16671363 199.66659302 328.3333802 198.5 326.5 C197.9225 325.5925 197.345 324.685 196.75 323.75 C177.5 293.5 177.5 293.5 175.75048828 290.75073242 C174.58223612 288.91493088 173.41394176 287.0791562 172.24560547 285.2434082 C169.35285245 280.69805624 166.4608023 276.15226033 163.5703125 271.60546875 C157.39533632 261.89391531 151.2066379 252.1913537 145 242.5 C138.21971821 231.91293014 131.46257897 221.31135854 124.71777344 210.70166016 C121.81326436 206.13353943 118.90650771 201.56684923 116 197 C114.8333228 195.16667337 113.66665613 193.33334004 112.5 191.5 C111.9225 190.5925 111.345 189.685 110.75 188.75 C95.875 165.375 95.875 165.375 81 142 C80.67 226.15 80.34 310.3 80 397 C53.6 397 27.2 397 0 397 C0 265.99 0 134.98 0 0 Z " fill="#F7931E" transform="translate(0,0)"/>
<path d="M0 0 C9.29343083 -0.09320325 18.58669762 -0.16401772 27.88049603 -0.20724869 C32.19727424 -0.22801075 36.51372972 -0.25611657 40.83032227 -0.30175781 C45.0060163 -0.34562656 49.18140242 -0.36922237 53.35730934 -0.37950897 C54.94032441 -0.38682754 56.52332507 -0.4011161 58.10620689 -0.42292023 C71.93980977 -0.60567767 83.82377544 1.26857456 95 10 C95.77754639 10.57024902 96.55509277 11.14049805 97.35620117 11.72802734 C100.26305786 14.22606117 102.15452359 16.74248807 104.30078125 19.9140625 C104.87896355 20.76709457 104.87896355 20.76709457 105.46882629 21.63735962 C109.57864753 27.75741322 113.40070381 34.05161774 117.1875 40.375 C117.92784032 41.60363241 118.6686537 42.83197987 119.40991211 44.06005859 C120.90296183 46.53442851 122.39417345 49.00988938 123.88378906 51.48632812 C126.92684251 56.54259497 129.99363531 61.5843698 133.0625 66.625 C133.61921387 67.54152344 134.17592773 68.45804687 134.74951172 69.40234375 C137.84300373 74.48811909 140.96261054 79.55636925 144.109375 84.609375 C165.85804004 119.56708897 165.85804004 119.56708897 170 136 C170.387323 137.38928711 170.387323 137.38928711 170.7824707 138.80664062 C174.29547945 153.27135772 173.44246359 168.24925643 173.43579102 183.03759766 C173.45428399 202.04097353 174.24138212 219.84157888 181.875 237.5 C182.22304688 238.33329834 182.57109375 239.16659668 182.9296875 240.02514648 C189.26015454 254.93345456 197.88864934 267.2372943 209 279 C209.68578125 279.75023437 210.3715625 280.50046875 211.078125 281.2734375 C232.30115037 303.67551983 264.35344294 317.14077548 294.9921875 318.2734375 C307.04607275 318.51983025 318.33032257 318.11332165 330.125 315.5 C355.20589463 309.99901441 377.73938791 311.96090451 400 325 C402.82234399 326.85057885 405.42940417 328.81888839 408 331 C408.77859375 331.57621094 409.5571875 332.15242188 410.359375 332.74609375 C413.5596919 335.47772518 416.00148435 338.49134934 418.5625 341.8125 C419.03107422 342.40353516 419.49964844 342.99457031 419.98242188 343.60351562 C423.06452604 347.5563681 425.60414028 351.59725542 428 356 C403.69871476 373.60178708 376.93495199 386.00541082 347.6875 392.8125 C346.85371826 393.0074707 346.01993652 393.20244141 345.16088867 393.40332031 C330.33707447 396.65512519 315.68100972 397.40720075 300.5625 397.375 C299.64201874 397.37478851 298.72153748 397.37457703 297.77316284 397.37435913 C282.82897872 397.34019156 268.61146648 396.35956068 254 393 C253.16645996 392.81808105 252.33291992 392.63616211 251.47412109 392.44873047 C232.72715721 388.2889342 214.86456404 381.11719441 198 372 C197.4013916 371.68063477 196.8027832 371.36126953 196.18603516 371.03222656 C163.75269017 353.61775678 134.94309763 326.18862961 117 294 C116.58008789 293.25298828 116.16017578 292.50597656 115.72753906 291.73632812 C97.7452028 259.44725024 89.24937703 225.70317433 88.82421875 188.7890625 C88.80626503 187.43226883 88.80626503 187.43226883 88.78794861 186.04806519 C88.7394856 182.30188882 88.69194042 178.55603526 88.67407227 174.80957031 C88.58322509 158.77015124 87.36947712 144.14237203 79 130 C78.54125488 129.22092285 78.08250977 128.4418457 77.60986328 127.63916016 C76.1233965 125.17740294 74.59914666 122.74322139 73.0625 120.3125 C71.90282633 118.45884577 70.74400133 116.6046604 69.5859375 114.75 C68.99264648 113.80125 68.39935547 112.8525 67.78808594 111.875 C64.88602136 107.20887324 62.03712451 102.51077075 59.1875 97.8125 C54.21730522 89.62727546 49.21371632 81.46343654 44.1875 73.3125 C38.23108295 63.65073397 32.32114965 53.96199727 26.44216919 44.25302124 C22.47861649 37.70777742 18.49954575 31.17298573 14.4765625 24.6640625 C14.108797 24.06865662 13.74103149 23.47325073 13.36212158 22.85980225 C11.60758319 20.02019343 9.8500025 17.18257833 8.08789062 14.34765625 C7.46333984 13.33832031 6.83878906 12.32898438 6.1953125 11.2890625 C5.64891113 10.40943848 5.10250977 9.52981445 4.53955078 8.62353516 C2.88782457 5.80884282 1.4473608 2.92407849 0 0 Z " fill="#F7931E" transform="translate(157,0)"/>
<path d="M0 0 C11.78301622 10.87304071 19.2022762 25.85066309 20.16015625 41.8046875 C20.6480681 56.56612916 19.01379771 70.96141718 9.72265625 83.1328125 C7.88671875 84.14453125 7.88671875 84.14453125 5.72265625 84.1328125 C3.12109375 82.76171875 3.12109375 82.76171875 0.09765625 80.6953125 C-30.600267 60.75338253 -68.86772559 56.25283868 -104.25927734 63.65673828 C-118.88326193 66.98245877 -132.10485613 72.76298674 -145.21484375 79.9453125 C-159.03084688 87.47025509 -173.1934052 89.50826239 -188.5390625 85.09765625 C-203.84277759 79.70533439 -212.49325476 67.67641197 -220.90234375 54.5703125 C-221.81899677 53.16515643 -222.73695786 51.76085278 -223.65625 50.35742188 C-225.8784479 46.95883404 -228.08275146 43.54928478 -230.27734375 40.1328125 C-226.04723229 34.88483047 -221.6728784 30.77784584 -216.27734375 26.7578125 C-215.15694702 25.91428223 -215.15694702 25.91428223 -214.01391602 25.05371094 C-207.30993986 20.05906686 -200.4438297 15.43388731 -193.27734375 11.1328125 C-192.66600586 10.7620459 -192.05466797 10.3912793 -191.42480469 10.00927734 C-163.63303823 -6.70709269 -131.49555013 -16.66768895 -99.27734375 -19.8671875 C-98.18164062 -19.97804688 -97.0859375 -20.08890625 -95.95703125 -20.203125 C-62.7666522 -23.05241508 -26.71411658 -21.90282628 0 0 Z " fill="#F7931E" transform="translate(542.27734375,21.8671875)"/>
</svg>
